<svg width="18" height="14" viewBox="0 0 18 14" fill="none" xmlns="http://www.w3.org/2000/svg">
<path fill-rule="evenodd" clip-rule="evenodd" d="M16.4 6.19892C16.517 6.31611 16.5828 6.47496 16.5828 6.64059C16.5828 6.80622 16.517 6.96507 16.4 7.08226L11.4 12.0823C11.3428 12.1437 11.2738 12.1929 11.1971 12.2271C11.1204 12.2612 11.0377 12.2796 10.9537 12.2811C10.8698 12.2826 10.7865 12.2671 10.7086 12.2357C10.6308 12.2043 10.5601 12.1575 10.5008 12.0981C10.4414 12.0388 10.3946 11.9681 10.3632 11.8903C10.3318 11.8124 10.3163 11.7291 10.3178 11.6452C10.3193 11.5612 10.3377 11.4785 10.3718 11.4018C10.406 11.3251 10.4552 11.2561 10.5166 11.1989L14.45 7.26559L2.62498 7.26559C2.45922 7.26559 2.30025 7.19974 2.18304 7.08253C2.06583 6.96532 1.99998 6.80635 1.99998 6.64059C1.99998 6.47483 2.06583 6.31586 2.18304 6.19865C2.30025 6.08144 2.45922 6.01559 2.62498 6.01559L14.45 6.01559L10.5166 2.08226C10.4552 2.02504 10.406 1.95604 10.3718 1.87937C10.3377 1.80271 10.3193 1.71994 10.3178 1.63603C10.3163 1.55211 10.3318 1.46875 10.3632 1.39093C10.3946 1.3131 10.4414 1.24241 10.5008 1.18306C10.5601 1.12371 10.6308 1.07692 10.7086 1.04549C10.7865 1.01405 10.8698 0.998616 10.9537 1.0001C11.0377 1.00158 11.1204 1.01995 11.1971 1.05411C11.2738 1.08827 11.3428 1.13752 11.4 1.19892L16.4 6.19892Z" fill="black"/>
</svg>
