<svg width="22" height="22" viewBox="0 0 22 22" fill="none" xmlns="http://www.w3.org/2000/svg">
<path fill-rule="evenodd" clip-rule="evenodd" d="M11.4398 6.00043C11.5228 5.99722 11.6054 6.01205 11.6812 6.04376C11.7569 6.07547 11.8239 6.1232 11.8768 6.18322C11.9629 6.28119 11.9828 6.40238 11.9914 6.49074C12 6.58264 12 6.7003 12 6.83411V15.1659C12 15.2997 12 15.4174 11.9914 15.5093C11.9828 15.5976 11.9629 15.7188 11.8768 15.8168C11.8239 15.8768 11.7569 15.9245 11.6812 15.9562C11.6054 15.988 11.5228 16.0028 11.4398 15.9996C11.3043 15.9945 11.195 15.9269 11.1197 15.8738C11.0242 15.8027 10.9316 15.7283 10.842 15.6506L9.104 14.1863C9.00446 14.1019 8.98401 14.0868 8.9641 14.0762C8.9412 14.0641 8.91655 14.0553 8.89092 14.0499C8.86886 14.0449 8.84249 14.0439 8.70851 14.0439H7.84219C7.40041 14.0439 7.0512 14.0439 6.77139 14.0222C6.48566 14.0004 6.24675 13.9545 6.02883 13.851C5.67477 13.681 5.38673 13.4107 5.20555 13.0784C5.09524 12.8749 5.04628 12.6507 5.02314 12.3816C5 12.119 5 11.7908 5 11.3767V10.6496C5 10.2355 5 9.90728 5.02314 9.6447C5.04628 9.37707 5.09524 9.15237 5.20555 8.94786C5.38673 8.6156 5.67477 8.3453 6.02883 8.17528C6.24568 8.07176 6.48459 8.02581 6.77139 8.0041C7.05173 7.98289 7.40095 7.98289 7.84219 7.98289H8.70851C8.84249 7.98289 8.86886 7.98137 8.89092 7.97683C8.91658 7.97131 8.94123 7.9623 8.9641 7.95007C8.98401 7.93997 9.00446 7.92431 9.104 7.83999L10.842 6.37561C10.948 6.28624 11.0411 6.20746 11.1197 6.15192C11.195 6.0989 11.3043 6.03174 11.4398 6.02618V6.00043ZM11.4425 6.53063C11.3855 6.57103 11.3107 6.63365 11.1929 6.73312L9.44892 8.20254C9.37359 8.26667 9.30686 8.32272 9.2283 8.36413C9.15931 8.40057 9.08497 8.42728 9.00769 8.44341C8.91575 8.45891 8.82229 8.465 8.72896 8.46159H7.85725C7.40095 8.46159 7.07702 8.46159 6.81874 8.48178C6.56584 8.50097 6.40603 8.53783 6.27527 8.59893C6.02287 8.71985 5.8176 8.91247 5.68875 9.14934C5.62311 9.27053 5.58383 9.41999 5.56338 9.65934C5.54186 9.8992 5.54186 10.2047 5.54186 10.6339V11.3408C5.54186 11.769 5.54186 12.073 5.56338 12.3154C5.58383 12.5527 5.62365 12.7027 5.68875 12.8254C5.8179 13.0627 6.02345 13.2561 6.27527 13.3758C6.40387 13.4374 6.56369 13.4743 6.81874 13.4935C7.07433 13.5137 7.39988 13.5137 7.85725 13.5137H8.72896C8.83066 13.5137 8.92052 13.5137 9.00822 13.5318C9.08535 13.548 9.15871 13.5744 9.2283 13.6111C9.30686 13.652 9.37305 13.7091 9.44892 13.7727L11.1923 15.2421C11.2765 15.3156 11.3637 15.3858 11.4538 15.4527L11.4549 15.4391C11.4615 15.336 11.4638 15.2328 11.4619 15.1295V6.84825C11.4638 6.74047 11.4611 6.63266 11.4538 6.52508L11.442 6.53316L11.4425 6.53063Z" fill="black"/>
<path d="M14.0295 6.13115C14.0449 6.10152 14.0656 6.0755 14.0903 6.05458C14.115 6.03367 14.1432 6.01826 14.1733 6.00924C14.2035 6.00022 14.2349 5.99777 14.2659 6.00203C14.2969 6.00629 14.3269 6.01716 14.354 6.03405C15.934 7.01546 17 8.87444 17 10.9982C17 13.1324 15.9292 14.9914 14.3445 15.9728C14.2899 16.0024 14.227 16.0081 14.1687 15.9886C14.1104 15.9692 14.0612 15.9261 14.0311 15.8683C14.001 15.8105 13.9923 15.7423 14.0069 15.6777C14.0215 15.6131 14.0582 15.5571 14.1094 15.5211C15.5514 14.6279 16.527 12.9403 16.527 10.9982C16.527 9.06657 15.5609 7.37895 14.1237 6.48581C14.0965 6.46893 14.0727 6.44639 14.0535 6.41946C14.0344 6.39252 14.0202 6.36174 14.012 6.32885C14.0037 6.29597 14.0015 6.26163 14.0054 6.22779C14.0093 6.19396 14.0192 6.1613 14.0347 6.13167L14.0295 6.13115Z" fill="black"/>
<path d="M13.3478 8.03179C13.2941 7.99987 13.2305 7.99158 13.1709 8.00877C13.1114 8.02595 13.0609 8.06719 13.0304 8.12342C12.9999 8.17965 12.992 8.24626 13.0084 8.3086C13.0248 8.37094 13.0642 8.4239 13.1179 8.45582C13.5471 8.71129 13.9041 9.08131 14.1524 9.52821C14.4008 9.97511 14.5316 10.4829 14.5316 11C14.5316 11.5171 14.4008 12.0249 14.1524 12.4718C13.9041 12.9187 13.5471 13.2887 13.1179 13.5442C13.0642 13.5761 13.0248 13.6291 13.0084 13.6914C12.992 13.7537 12.9999 13.8203 13.0304 13.8766C13.0609 13.9328 13.1114 13.974 13.1709 13.9912C13.2305 14.0084 13.2941 14.0001 13.3478 13.9682C13.8496 13.6711 14.267 13.2397 14.5573 12.7182C14.8477 12.1966 15.0004 11.6037 15 11C15 9.72791 14.3345 8.61666 13.3478 8.03179Z" fill="black"/>
</svg>
